<?xml version="1.0" encoding="UTF-8"?>
<svg xmlns="http://www.w3.org/2000/svg" version="1.1" viewBox="0 0 884.3 107.4">
  <defs>
    <style>
      .cls-1 {
        fill: #0046af;
      }
    </style>
  </defs>
  <!-- Generator: Adobe Illustrator 28.7.1, SVG Export Plug-In . SVG Version: 1.2.0 Build 142)  -->
  <g>
    <g id="Layer_1">
      <g id="Layer_1-2" data-name="Layer_1">
        <g id="Layer_1-2">
          <g>
            <path class="cls-1" d="M300.4,44.3c7.9,0,10.3-1.7,10.3-15.2s-2.4-15.2-10.3-15.2h-18.1c-8.2,0-10.3,2.5-10.3,15.2s2.2,15.2,10.3,15.2h18.1ZM309.1,4.3c9.3,0,14.5,5.7,14.5,15.1v19.4c0,9.4-5.2,15.1-14.5,15.1h-35.5c-9.4,0-14.6-5.7-14.6-15.1v-19.4c0-9.4,5.2-15.1,14.6-15.1,0,0,35.5,0,35.5,0Z"/>
            <polygon class="cls-1" points="383.4 4.3 383.4 40.1 341.5 4.3 330.2 4.3 330.2 53.8 341.5 53.8 341.5 18.1 383.4 53.8 394.5 53.8 394.5 4.3 383.4 4.3"/>
            <path class="cls-1" d="M109.7,44.2h-18.1c-8.1,0-10.3-1.8-10.3-15.2s2.1-15.2,10.3-15.2h18.1c7.9,0,10.3,1.9,10.3,15.2s-2.4,15.2-10.3,15.2M118.5,4.3h-35.5c-9.4,0-14.6,5.7-14.6,15.1v19.4c0,9.4,5.2,15.1,14.6,15.1h35.5c9.3,0,14.5-5.7,14.5-15.1v-19.4c0-9.4-5.2-15.1-14.5-15.1"/>
            <polygon class="cls-1" points="252.4 14.4 252.4 4.3 195.5 4.3 195.5 14.4 217.7 14.4 217.7 53.8 229.1 53.8 229.1 14.4 252.4 14.4"/>
            <path class="cls-1" d="M416.6,43.5c-2.7,0-4.9-2.3-4.9-5s2.2-5,4.9-5h21.9v-9h-21.9c-2.7,0-4.9-2.3-4.9-5s2.2-5,4.9-5h33.8V4.3h-49.3v39.6c0,1.2.1,2.4.5,3.5,1.3,4.1,4.6,6.4,10.6,6.4h38.2v-10.4h-33.8Z"/>
            <path class="cls-1" d="M155.9,24.5c-2.7,0-4.9-2.3-4.9-5.1s2.2-5,4.9-5h33V4.3h-49.3v49.5h11.3v-19.7h26v-9.6s-21,0-21,0Z"/>
            <path class="cls-1" d="M23.5,24.5c-3,0-5.5-2.3-5.5-5s2.5-5,5.5-5h38.4V4.3H20c-9.1,0-14,5.1-14,15.3s2.8,12.2,7.9,14.1c.8.3,1.6.4,2.4.4h28.4c3,0,5.5,2.3,5.5,5s-2.5,5-5.5,5H6v9.7h42.6c9.4,0,13.2-5.1,13.2-15.4s-1.6-13.7-8.6-14h-29.7,0Z"/>
            <rect class="cls-1" x="325.7" y="78.4" width="5.2" height="24.3"/>
            <path class="cls-1" d="M347.3,102.8l-5.9-19.1h-.1c.2,3.9.3,6.5.3,7.8v11.3h-4.6v-24.3h7l5.8,18.6h0l6.1-18.6h7v24.3h-4.8v-13.4c0-.7,0-2.6.2-5.7h-.2l-6.3,19.1h-4.7.2Z"/>
            <path class="cls-1" d="M386,86c0,2.6-.8,4.6-2.5,6-1.6,1.4-4,2.1-7,2.1h-2.2v8.7h-5.2v-24.3h7.8c3,0,5.2.6,6.7,1.9s2.3,3.2,2.3,5.7M374.3,89.9h1.7c1.6,0,2.8-.3,3.6-.9.8-.6,1.2-1.5,1.2-2.7s-.3-2.1-1-2.7-1.7-.9-3.1-.9h-2.3v7.2h-.1Z"/>
            <path class="cls-1" d="M404.1,102.8l-1.8-5.8h-8.9l-1.8,5.8h-5.6l8.6-24.4h6.3l8.6,24.4h-5.6.2,0ZM401.1,92.7c-1.6-5.2-2.6-8.2-2.8-8.9-.2-.7-.4-1.2-.4-1.6-.4,1.4-1.4,4.9-3.1,10.5h6.3Z"/>
            <path class="cls-1" d="M422.2,82.4c-1.9,0-3.4.7-4.5,2.2s-1.6,3.5-1.6,6.1c0,5.4,2,8.1,6.1,8.1s3.8-.4,6.2-1.3v4.3c-2,.8-4.2,1.2-6.7,1.2s-6.2-1.1-8.1-3.2-2.8-5.2-2.8-9.2.5-4.7,1.4-6.6,2.2-3.4,4-4.4c1.7-1,3.7-1.5,6.1-1.5s4.7.6,7.1,1.7l-1.7,4.2c-.9-.4-1.8-.8-2.7-1.1-.9-.3-1.8-.5-2.7-.5"/>
            <polygon class="cls-1" points="443.8 102.8 438.6 102.8 438.6 82.7 432 82.7 432 78.4 450.4 78.4 450.4 82.7 443.8 82.7 443.8 102.8"/>
          </g>
        </g>
        <rect x="481.1" y="3.4" width="2.2" height="100.6"/>
        <polygon points="544.8 77.2 518.5 77.2 518.5 28.9 544.8 28.9 544.8 32 521.8 32 521.8 50.2 543.6 50.2 543.6 53.3 521.8 53.3 521.8 74.1 544.8 74.1 544.8 77.2"/>
        <rect x="555.8" y="28.9" width="3.4" height="48.3"/>
        <path d="M607.9,77.2h-3.4l-28.6-42.9h-.3c.3,5.1.4,9,.4,11.6v31.3h-3.2V28.9h3.4l28.6,42.8h.2c-.2-4-.3-7.7-.3-11.3v-31.5h3.3v48.3h-.1Z"/>
        <path d="M650.1,28.9h3.7l-18.1,48.3h-3l-18-48.3h3.6l12.2,32.9c1.8,5,3.1,8.7,3.7,11.2.4-1.7,1.3-4.2,2.6-7.7l13.3-36.3h0Z"/>
        <path d="M701.2,53c0,7.7-1.9,13.7-5.7,18.2s-9.1,6.7-15.9,6.7-12-2.2-15.8-6.7-5.7-10.5-5.7-18.2,1.9-13.7,5.8-18.1c3.9-4.4,9.1-6.6,15.8-6.6s12,2.2,15.8,6.7c3.8,4.4,5.7,10.5,5.7,18.2M661.7,53c0,6.9,1.5,12.3,4.6,16,3.1,3.8,7.5,5.7,13.3,5.7s10.3-1.9,13.3-5.6c3.1-3.7,4.6-9.1,4.6-16.1s-1.5-12.3-4.6-16-7.5-5.6-13.3-5.6-10.2,1.9-13.3,5.6-4.7,9.1-4.7,16"/>
        <rect x="712.3" y="28.9" width="3.4" height="48.3"/>
        <path d="M750,31.2c-6.1,0-10.8,1.9-14.3,5.8-3.5,3.9-5.2,9.2-5.2,15.9s1.6,12.2,4.9,16c3.3,3.8,8,5.7,14.1,5.7s7.8-.5,11.2-1.6v3c-3.2,1.1-7.2,1.7-12,1.7-6.8,0-12.1-2.2-16-6.6s-5.8-10.5-5.8-18.4.9-9.2,2.8-13c1.9-3.7,4.5-6.6,8-8.7,3.5-2,7.5-3.1,12.2-3.1s8.9.9,12.6,2.6l-1.4,3c-3.5-1.8-7.2-2.6-11.1-2.6"/>
        <rect x="771.4" y="28.9" width="3.4" height="48.3"/>
        <path d="M823.5,77.2h-3.4l-28.6-42.9h-.3c.3,5.1.4,9,.4,11.6v31.3h-3.2V28.9h3.4l28.6,42.8h.2c-.2-4-.3-7.7-.3-11.3v-31.5h3.3v48.3h-.1Z"/>
        <path d="M856.2,52.8h17.8v22c-4.7,2-9.9,3-15.8,3s-13.5-2.2-17.5-6.5c-4.1-4.3-6.1-10.4-6.1-18.3s1-9.3,3-13.1c2-3.8,4.9-6.7,8.7-8.8,3.8-2.1,8.1-3.1,12.9-3.1s10,1,14.2,2.9l-1.4,3c-4.2-1.9-8.5-2.9-13-2.9-6.4,0-11.4,2-15.1,5.9-3.7,3.9-5.6,9.2-5.6,15.9s1.8,12.7,5.3,16.4c3.5,3.7,8.7,5.5,15.6,5.5s8.2-.6,11.3-1.9v-17h-14.4v-3.2.2Z"/>
      </g>
    </g>
  </g>
</svg>