<?xml version="1.0" encoding="UTF-8"?>
<svg xmlns="http://www.w3.org/2000/svg" version="1.1" viewBox="0 0 884.3 58.9">
  <defs>
    <style>
      .cls-1 {
        fill: #0046af;
      }
    </style>
  </defs>
  <!-- Generator: Adobe Illustrator 28.7.1, SVG Export Plug-In . SVG Version: 1.2.0 Build 142)  -->
  <g>
    <g id="Layer_1">
      <g id="Layer_1-2" data-name="Layer_1">
        <g id="Layer_1-2">
          <g>
            <path class="cls-1" d="M297.3,45.9c7.8,0,10.3-1.7,10.3-15.2s-2.4-15.2-10.3-15.2h-18c-8.2,0-10.3,2.4-10.3,15.2s2.2,15.2,10.3,15.2h18ZM306.1,6c9.3,0,14.5,5.7,14.5,15.1v19.4c0,9.4-5.2,15.1-14.5,15.1h-35.5c-9.4,0-14.6-5.7-14.6-15.1v-19.4c0-9.4,5.2-15.1,14.6-15.1,0,0,35.5,0,35.5,0Z"/>
            <polygon class="cls-1" points="380.3 6 380.3 41.7 338.4 6 327.1 6 327.1 55.4 338.4 55.4 338.4 19.8 380.3 55.4 391.3 55.4 391.3 6 380.3 6"/>
            <path class="cls-1" d="M106.9,45.8h-18c-8.1,0-10.3-1.8-10.3-15.2s2.1-15.2,10.3-15.2h18c7.8,0,10.3,1.9,10.3,15.2s-2.4,15.2-10.3,15.2M115.8,6h-35.5c-9.4,0-14.6,5.7-14.6,15.1v19.4c0,9.4,5.2,15.1,14.6,15.1h35.5c9.3,0,14.5-5.7,14.5-15.1v-19.4c0-9.4-5.2-15.1-14.5-15.1"/>
            <polygon class="cls-1" points="249.4 16 249.4 6 192.6 6 192.6 16 214.7 16 214.7 55.4 226.2 55.4 226.2 16 249.4 16"/>
            <path class="cls-1" d="M413.4,45.1c-2.7,0-4.9-2.3-4.9-5s2.2-5,4.9-5h21.9v-9h-21.9c-2.7,0-4.9-2.3-4.9-5s2.2-5,4.9-5h33.7V5.9h-49.2v39.5c0,1.2,0,2.4.5,3.5,1.3,4.1,4.6,6.4,10.6,6.4h38.1v-10.4h-33.7Z"/>
            <path class="cls-1" d="M153.1,26.1c-2.7,0-4.9-2.3-4.9-5.1s2.2-5,4.9-5h32.9V5.9h-49.2v49.4h11.3v-19.7h26v-9.6s-21,0-21,0Z"/>
            <path class="cls-1" d="M20.9,26.1c-3,0-5.5-2.3-5.5-5s2.4-5,5.5-5h38.3V5.9H17.4c-9.1,0-14,5.1-14,15.3s2.8,12.2,7.8,14.1c.8.3,1.6.4,2.4.4h28.3c3,0,5.5,2.3,5.5,5s-2.4,5-5.5,5H3.4v9.7h42.5c9.4,0,13.1-5.1,13.1-15.4s-1.6-13.7-8.6-14h-29.7Z"/>
          </g>
        </g>
        <rect x="479.4" y="5.6" width="2.2" height="49.6"/>
        <polygon points="544.3 55.2 517.5 55.2 517.5 5.9 544.3 5.9 544.3 9.1 520.8 9.1 520.8 27.6 543.1 27.6 543.1 30.8 520.8 30.8 520.8 52 544.3 52 544.3 55.2"/>
        <rect x="555.5" y="5.9" width="3.5" height="49.2"/>
        <path d="M608.6,55.2h-3.5l-29.2-43.7h-.3c.3,5.2.4,9.2.4,11.8v31.9h-3.3V5.9h3.5l29.2,43.6h.2c-.2-4.1-.3-7.8-.3-11.5V5.9h3.4v49.2h-.1Z"/>
        <path d="M651.6,5.9h3.8l-18.4,49.2h-3.1l-18.3-49.2h3.7l12.4,33.5c1.8,5.1,3.2,8.9,3.8,11.4.4-1.7,1.3-4.3,2.7-7.8l13.6-37h0Z"/>
        <path d="M703.7,30.5c0,7.8-1.9,14-5.8,18.6s-9.3,6.8-16.2,6.8-12.2-2.2-16.1-6.8-5.8-10.7-5.8-18.6,1.9-14,5.9-18.4c4-4.5,9.3-6.7,16.1-6.7s12.2,2.2,16.1,6.8c3.9,4.5,5.8,10.7,5.8,18.6M663.4,30.5c0,7,1.5,12.5,4.7,16.3,3.2,3.9,7.6,5.8,13.6,5.8s10.5-1.9,13.6-5.7c3.2-3.8,4.7-9.3,4.7-16.4s-1.5-12.5-4.7-16.3-7.6-5.7-13.6-5.7-10.4,1.9-13.6,5.7-4.8,9.3-4.8,16.3"/>
        <rect x="715" y="5.9" width="3.5" height="49.2"/>
        <path d="M753.4,8.3c-6.2,0-11,1.9-14.6,5.9-3.6,4-5.3,9.4-5.3,16.2s1.6,12.4,5,16.3c3.4,3.9,8.2,5.8,14.4,5.8s8-.5,11.4-1.6v3.1c-3.3,1.1-7.3,1.7-12.2,1.7-6.9,0-12.3-2.2-16.3-6.7s-5.9-10.7-5.9-18.8.9-9.4,2.9-13.3c1.9-3.8,4.6-6.7,8.2-8.9,3.6-2,7.6-3.2,12.4-3.2s9.1.9,12.8,2.7l-1.4,3.1c-3.6-1.8-7.3-2.7-11.3-2.7"/>
        <rect x="775.2" y="5.9" width="3.5" height="49.2"/>
        <path d="M828.4,55.2h-3.5l-29.2-43.7h-.3c.3,5.2.4,9.2.4,11.8v31.9h-3.3V5.9h3.5l29.2,43.6h.2c-.2-4.1-.3-7.8-.3-11.5V5.9h3.4v49.2h-.1Z"/>
        <path d="M861.7,30.3h18.1v22.4c-4.8,2-10.1,3.1-16.1,3.1s-13.8-2.2-17.8-6.6c-4.2-4.4-6.2-10.6-6.2-18.7s1-9.5,3.1-13.4c2-3.9,5-6.8,8.9-9,3.9-2.1,8.3-3.2,13.1-3.2s10.2,1,14.5,3l-1.4,3.1c-4.3-1.9-8.7-3-13.3-3-6.5,0-11.6,2-15.4,6-3.8,4-5.7,9.4-5.7,16.2s1.8,12.9,5.4,16.7c3.6,3.8,8.9,5.6,15.9,5.6s8.4-.6,11.5-1.9v-17.3h-14.7v-3.3.2h.1Z"/>
      </g>
    </g>
  </g>
</svg>